<svg width="147" height="38" viewBox="0 0 147 38" fill="none" xmlns="http://www.w3.org/2000/svg">
<path d="M127.808 26.5765L130.363 31.1623C130.678 31.7273 131.372 31.964 131.967 31.7082C133.169 31.1903 134.284 30.5096 135.284 29.6927C135.862 29.2206 135.908 28.3541 135.379 27.8273L133.057 25.5127C129.39 21.8583 123.445 21.8583 119.778 25.5127L117.455 27.8273C116.927 28.3541 116.972 29.2206 117.551 29.6927C118.551 30.5083 119.665 31.1903 120.868 31.7082C121.463 31.9652 122.158 31.7286 122.472 31.1623L125.026 26.5765C125.632 25.4873 127.202 25.4873 127.808 26.5765Z" fill="#0E53D9"/>
<path d="M127.808 11.2156L130.363 6.62974C130.678 6.06478 131.372 5.82811 131.967 6.08387C133.169 6.60175 134.284 7.2825 135.284 8.09941C135.862 8.57148 135.908 9.43801 135.379 9.9648L133.057 12.2794C129.39 15.9338 123.445 15.9338 119.778 12.2794L117.455 9.9648C116.927 9.43801 116.972 8.57148 117.551 8.09941C118.551 7.28378 119.665 6.60175 120.868 6.08387C121.463 5.82684 122.158 6.06351 122.472 6.62974L125.026 11.2156C125.632 12.3035 127.202 12.3035 127.808 11.2156Z" fill="#0E53D9"/>
<path d="M138.872 15.8638L130.576 16.9047C127.814 17.2508 125.021 17.2508 122.259 16.9047L113.963 15.8638C113.28 15.7786 112.652 16.2532 112.556 16.9314C112.465 17.5727 112.418 18.2293 112.418 18.8948C112.418 19.5615 112.465 20.2181 112.556 20.8594C112.652 21.5389 113.281 22.0135 113.963 21.927L122.259 20.8861C125.021 20.54 127.814 20.54 130.576 20.8861L138.872 21.927C139.555 22.0122 140.183 21.5376 140.279 20.8594C140.369 20.2181 140.417 19.5615 140.417 18.8948C140.417 18.228 140.369 17.5727 140.279 16.9314C140.183 16.2532 139.555 15.7786 138.872 15.8638Z" fill="#0E53D9"/>
<path d="M81.8552 14.7326L79.944 15.1194C79.7754 15.1538 79.6605 15.3103 79.681 15.4808L80.4572 22.1891C80.4891 22.469 80.3283 22.7337 80.064 22.8342C79.6593 22.9882 79.2047 23.104 78.703 23.1816C78.0072 23.2872 77.2041 23.3419 76.2951 23.3419C75.4792 23.3419 74.7694 23.2414 74.1681 23.0416C73.5667 22.8418 73.2654 22.4817 73.2654 21.9613C73.2654 21.3175 73.5093 19.5259 73.997 16.5878C74.0251 16.4199 73.914 16.2557 73.7455 16.2226L72.1023 15.9033C71.9261 15.8689 71.7563 15.9872 71.7295 16.1641L71.2788 19.0602C70.9711 20.8339 70.8167 21.9677 70.8167 22.4601C70.8167 23.8611 71.2239 24.9134 72.041 25.6208C72.8569 26.327 74.4234 26.6808 76.2964 26.6808C77.1658 26.6808 78.1055 26.5675 79.1166 26.341C80.1265 26.1145 80.9934 25.7468 81.7161 25.2404C82.4387 24.734 82.8281 23.9781 82.8255 22.9118C82.8217 21.0795 82.6187 18.6861 82.2548 15.0266C82.2319 14.8319 82.0467 14.6932 81.8552 14.7326Z" fill="#414659"/>
<path d="M87.7528 21.4994L87.7158 9.53345C87.7145 9.21279 87.4311 8.96721 87.1132 9.01048L84.93 9.30441C84.6593 9.34131 84.4601 9.57671 84.4703 9.84901L84.9134 21.6979C84.9249 22.0033 85.1917 22.2349 85.4968 22.2056L87.274 22.0288C87.546 22.0008 87.7528 21.773 87.7528 21.4994Z" fill="#414659"/>
<path d="M100.788 13.5518L99.4283 13.7846C99.1168 13.8381 98.901 14.1244 98.9368 14.4361L99.3556 18.1593C98.9547 18.3463 98.4797 18.4723 97.9307 18.5397C97.3817 18.6059 96.7063 18.6402 95.9033 18.6402H95.2407C94.5308 18.6402 94.0099 18.5499 93.6754 18.3705C93.3409 18.1911 93.1468 17.8602 93.0932 17.3793L92.8647 15.365C92.8251 15.0176 92.4957 14.7797 92.1523 14.8497L90.6891 15.1474C90.3814 15.2098 90.1746 15.4999 90.218 15.8103L90.9534 21.1304C90.9738 21.2793 90.9521 21.432 90.8794 21.5643C90.5117 22.2361 89.9512 22.8787 89.1979 23.4895C88.4715 24.0786 87.3696 24.7174 85.8938 25.4045C85.5567 25.561 85.4392 25.9796 85.6512 26.2838L86.7185 27.8196C86.887 28.0614 87.2126 28.1453 87.4769 28.0155C89.4162 27.0549 90.8309 26.0433 91.7169 24.9795C92.5851 23.9387 93.083 22.7693 93.2183 21.4765C93.775 21.7412 94.4848 21.9791 95.2394 21.9791H95.902C97.9486 21.9791 99.4475 21.6585 100.397 21.0184C100.825 20.7258 101.14 20.3555 101.341 19.9089C101.541 19.4622 101.642 18.9851 101.642 18.4786C101.642 17.3156 101.589 15.8574 101.483 14.104C101.463 13.7515 101.138 13.492 100.788 13.5518Z" fill="#414659"/>
<path d="M106.277 9.53345C106.275 9.21279 105.992 8.96721 105.674 9.01048L103.491 9.30441C103.22 9.34131 103.021 9.57671 103.031 9.84901L103.474 21.6979C103.486 22.0033 103.752 22.2349 104.058 22.2056L105.835 22.0288C106.107 22.002 106.315 21.773 106.314 21.5007L106.277 9.53345Z" fill="#414659"/>
<path d="M67.0153 9.01048L64.8321 9.30441C64.5614 9.34131 64.3622 9.57671 64.3724 9.84901L64.8155 21.6979C64.827 22.0033 65.0938 22.2349 65.3989 22.2056L67.1761 22.0288C67.4481 22.002 67.6562 21.773 67.6549 21.5007L67.6179 9.53472C67.6179 9.21279 67.3344 8.96721 67.0153 9.01048Z" fill="#414659"/>
<path d="M100.741 24.7938C100.688 24.5138 100.443 24.3115 100.157 24.3115H94.565C94.2369 24.3115 93.9713 24.5762 93.9713 24.9032V26.7291C93.9713 27.0562 94.2369 27.3208 94.565 27.3208H100.503C100.875 27.3208 101.155 26.9836 101.087 26.6197L100.741 24.7938Z" fill="#414659"/>
<path d="M33.3062 24.2784H28.2567C27.9401 24.2784 27.7026 24.5647 27.7613 24.8752L28.0563 26.4276C28.1009 26.6655 28.3091 26.8373 28.5516 26.8373H31.3132V27.8629C31.3132 28.1403 31.5392 28.3655 31.8175 28.3655H33.3062C33.5845 28.3655 33.8105 28.1403 33.8105 27.8629V26.3792C33.8105 26.3716 33.8092 26.3652 33.8079 26.3576C33.8079 26.3499 33.8105 26.3436 33.8105 26.3359V24.7836C33.8117 24.5036 33.5858 24.2784 33.3062 24.2784Z" fill="#414659"/>
<path d="M75.1545 14.4997H76.9061C77.2343 14.4997 77.4998 14.2351 77.4998 13.9081V12.1623C77.4998 11.8353 77.2343 11.5706 76.9061 11.5706H75.1545C74.8264 11.5706 74.5608 11.8353 74.5608 12.1623V13.9081C74.5608 14.2351 74.8264 14.4997 75.1545 14.4997Z" fill="#414659"/>
<path d="M19.9795 13.0047H21.7312C22.0593 13.0047 22.3249 12.74 22.3249 12.413V10.6672C22.3249 10.3402 22.0593 10.0755 21.7312 10.0755H19.9795C19.6514 10.0755 19.3859 10.3402 19.3859 10.6672V12.413C19.3871 12.74 19.6527 13.0047 19.9795 13.0047Z" fill="#414659"/>
<path d="M12.3032 22.5302C11.975 22.5302 11.7095 22.7948 11.7095 23.1218V24.8676C11.7095 25.1946 11.975 25.4593 12.3032 25.4593H14.0548C14.3829 25.4593 14.6485 25.1946 14.6485 24.8676V23.1218C14.6485 22.7948 14.3829 22.5302 14.0548 22.5302H12.3032Z" fill="#414659"/>
<path d="M62.3852 9.10847C61.2106 9.4533 60.1164 9.80704 59.1027 10.1722C58.1183 10.5272 57.1365 10.9255 56.1573 11.3683C55.916 11.4777 55.7577 11.7157 55.7475 11.9791L55.6862 13.6332C55.676 13.903 55.8062 14.1549 56.0271 14.3102C57.4366 15.3052 59.9479 17.6809 60.3335 18.6988C60.3692 18.793 60.3169 18.8846 60.2173 18.9037C59.0989 19.1085 57.4889 19.2116 55.3874 19.2116H54.9329C54.4541 19.2116 54.0916 19.1683 53.8451 19.0793C53.6 18.9915 53.4289 18.863 53.3345 18.6924C53.24 18.5232 53.18 18.2865 53.1544 17.985L52.8991 14.4311C52.885 14.2364 52.6999 14.1015 52.5097 14.1473L50.3635 14.6601C50.209 14.697 50.1056 14.8433 50.1222 14.9998L50.5193 18.7141C50.5359 18.8693 50.4376 19.0106 50.2869 19.0538C49.9218 19.1582 49.4724 19.2103 48.9387 19.2103C48.6667 19.2103 48.4357 19.1862 48.2429 19.1378C48.105 19.1034 48.0105 18.9787 48.008 18.8362L47.9467 15.6246C47.9428 15.4528 47.8024 15.3154 47.63 15.3154H45.6958C45.5158 15.3154 45.3728 15.4643 45.3792 15.6437L45.5056 18.7408C45.512 18.8833 45.4226 19.0169 45.2847 19.0551C44.917 19.1582 44.5148 19.2091 44.0782 19.2091C43.7501 19.2091 43.5075 19.1327 43.3505 18.9826C43.1921 18.8311 43.1206 18.5805 43.1334 18.2293L43.15 15.6322C43.1513 15.4566 43.0096 15.3141 42.8334 15.3141H40.8979C40.723 15.3141 40.5812 15.4554 40.5812 15.6297V17.4416C40.5812 17.9837 40.2327 18.4634 39.7156 18.6326C38.7274 18.9571 37.3128 19.092 35.7731 18.2102C35.6186 18.1224 35.6161 17.8997 35.7693 17.8094C35.9582 17.6987 36.1357 17.5994 36.2953 17.518C36.4025 17.4633 36.4715 17.3564 36.4715 17.2355L36.4753 15.463C36.4753 15.206 36.2787 14.9922 36.0221 14.9668C35.9684 14.9617 35.9199 14.9553 35.8842 14.9502C33.4954 14.6245 30.6521 12.8876 28.0578 12.684C27.7195 12.6573 27.4182 12.8952 27.3646 13.2286L27.1271 14.6906C27.0645 15.0787 27.362 15.4299 27.7565 15.4414C30.3483 15.5101 31.2931 15.9427 33.0983 16.5395C33.2439 16.5878 33.2669 16.7838 33.1354 16.8614C32.7102 17.1134 32.0246 17.5065 31.6288 17.6847C31.6084 17.6936 31.5854 17.7038 31.5663 17.7127C31.482 17.7521 31.3978 17.7941 31.3135 17.831C30.7466 18.1199 30.2793 18.3273 29.9142 18.4532C28.5647 18.9558 27.8638 19.2078 26.024 19.2078H25.8236C24.926 19.2078 24.7141 19.12 24.2992 18.9457C24.1868 18.8986 24.1102 18.7904 24.1038 18.6683L23.9583 15.4528C23.9506 15.2709 23.7897 15.1334 23.6072 15.1538L21.8593 15.3459C21.6844 15.365 21.558 15.5241 21.5797 15.6984L21.9283 18.5258C21.9461 18.6695 21.8632 18.8057 21.7291 18.8591C21.1482 19.0907 20.4881 19.377 19.4042 19.377H17.9755C17.4202 19.377 17.0078 19.3109 16.7371 19.1785C16.4907 19.0589 16.28 18.8388 16.1013 18.527L16.0975 18.5283L15.9698 18.2967C15.8638 18.102 15.934 17.8577 16.1294 17.7508L16.5533 17.5167C16.6605 17.4582 16.7269 17.3449 16.7269 17.2241L16.7307 15.4643C16.7307 15.2098 16.5379 14.9935 16.2839 14.9693C16.2277 14.9642 16.1766 14.9579 16.1396 14.9515C13.7508 14.6257 10.9076 12.8876 8.31199 12.6853C7.97366 12.6586 7.67235 12.8965 7.61873 13.2299L7.38126 14.6919C7.3187 15.08 7.61618 15.4325 8.01069 15.4426C10.5348 15.5063 11.4808 15.9045 13.2197 16.4962C13.3793 16.5509 13.3883 16.7736 13.2312 16.8347C12.1511 17.2597 10.8246 17.8641 9.93471 18.452C8.26348 19.5577 7.09017 21.2806 6.72502 23.2452C6.63437 23.7287 6.62799 24.0163 6.62799 24.3357C6.62799 24.3624 6.62799 24.3891 6.62799 24.4146C6.62799 24.4808 6.63565 24.5456 6.6382 24.6118C6.69055 26.3983 7.2472 27.7954 8.32093 28.793C9.18655 29.5972 10.3037 30.0909 11.6698 30.2792C11.8626 30.3098 12.4537 30.3327 12.6516 30.3454C12.8622 30.3581 13.0767 30.3658 13.2976 30.3683C13.3244 30.3683 13.3512 30.3683 13.378 30.3683C14.7544 30.3683 15.9136 30.2372 17.032 29.9713C17.3589 29.8937 17.6091 29.6278 17.6615 29.2969L17.9449 27.4977C18.0049 27.1198 17.6627 26.8029 17.2887 26.8869C16.0515 27.1656 14.9012 27.3997 13.5427 27.3997C12.1179 27.3997 9.19804 27.0167 9.19804 24.1486C9.19804 22.2731 10.5526 20.8136 11.1514 20.4802C12.2341 19.8784 12.492 19.6379 13.8351 19.1543C14.1377 20.0336 14.4403 20.7029 14.7429 21.1622C15.0454 21.6216 15.4744 21.9626 16.0285 22.1891C16.5839 22.4156 17.3525 22.5288 18.3356 22.5288H19.4004C20.5481 22.5288 21.235 22.2527 21.8032 22.039C22.2258 21.8799 22.5603 21.6343 22.8079 21.3022C22.9139 21.1597 23.1195 21.1724 23.2127 21.3251C23.4016 21.6369 23.6825 21.8723 24.0553 22.03C24.5724 22.2502 25.0167 22.3596 25.8223 22.3596H25.9844C28.1906 22.3596 29.3014 21.8824 31.1041 20.9268L31.6518 20.6253C31.6518 20.6253 32.2161 20.2435 32.8302 19.7689C33.3563 20.6545 34.6496 22.1344 37.4405 22.1344C39.0722 22.1344 40.1574 21.7946 40.88 21.3442C41.0026 21.2679 41.157 21.2997 41.2605 21.3989C41.9524 22.0619 43.0504 22.3596 43.9505 22.3596C45.5783 22.3596 46.2895 21.8099 46.6278 21.4295C46.7453 21.2984 46.9559 21.2997 47.0708 21.4333C47.3249 21.7285 47.6977 21.9613 48.0309 22.0949C48.4727 22.2718 49.2681 22.3583 49.8988 22.3583C50.4159 22.3583 50.9048 22.254 51.3645 22.0466C51.6964 21.8977 51.9837 21.6941 52.2263 21.4371C52.3629 21.292 52.5876 21.306 52.7127 21.4613C52.9042 21.6979 53.1544 21.8901 53.4634 22.0377C53.9103 22.2514 54.3992 22.3583 54.9291 22.3583H55.3836C57.0727 22.3583 58.435 22.2642 59.4691 22.0759C60.5033 21.8875 61.2757 21.5694 61.7864 21.1241C62.2971 20.6787 62.5524 20.0718 62.5524 19.3045C62.5524 16.8347 60.9948 14.8179 59.0912 13.3953C59.0414 13.3571 58.8767 13.2324 58.5997 13.0187C59.953 12.4855 61.3574 12.0313 62.8116 11.6546C62.9661 11.6152 63.0669 11.4676 63.0452 11.3111L62.7899 9.36932C62.7669 9.17845 62.5716 9.05375 62.3852 9.10847Z" fill="#414659"/>
</svg>
